<mxfile host="app.diagrams.net" agent="Mozilla/5.0 (Windows NT 10.0; Win64; x64) AppleWebKit/537.36 (KHTML, like Gecko) Chrome/124.0.0.0 Safari/537.36" version="24.7.5">
  <diagram name="PÃ¡gina-1" id="rshpDniHSQWXk-bFJiW2">
    <mxGraphModel dx="978" dy="473" grid="1" gridSize="10" guides="1" tooltips="1" connect="1" arrows="1" fold="1" page="1" pageScale="1" pageWidth="827" pageHeight="1169" math="0" shadow="0">
      <root>
        <mxCell id="0" />
        <mxCell id="1" parent="0" />
        <mxCell id="WO5NyVBegauPzBwBtbuj-1" value="" style="html=1;verticalLabelPosition=bottom;align=center;labelBackgroundColor=#ffffff;verticalAlign=top;strokeWidth=2;strokeColor=#0080F0;shadow=0;dashed=0;shape=mxgraph.ios7.icons.data;" vertex="1" parent="1">
          <mxGeometry x="110" y="50" width="50" height="60" as="geometry" />
        </mxCell>
        <mxCell id="WO5NyVBegauPzBwBtbuj-2" value="" style="html=1;verticalLabelPosition=bottom;align=center;labelBackgroundColor=#ffffff;verticalAlign=top;strokeWidth=2;strokeColor=#0080F0;shadow=0;dashed=0;shape=mxgraph.ios7.icons.data;" vertex="1" parent="1">
          <mxGeometry x="110" y="190" width="50" height="60" as="geometry" />
        </mxCell>
        <mxCell id="WO5NyVBegauPzBwBtbuj-3" value="" style="html=1;verticalLabelPosition=bottom;align=center;labelBackgroundColor=#ffffff;verticalAlign=top;strokeWidth=2;strokeColor=#0080F0;shadow=0;dashed=0;shape=mxgraph.ios7.icons.data;" vertex="1" parent="1">
          <mxGeometry x="110" y="330" width="50" height="60" as="geometry" />
        </mxCell>
        <mxCell id="WO5NyVBegauPzBwBtbuj-12" style="edgeStyle=orthogonalEdgeStyle;rounded=0;orthogonalLoop=1;jettySize=auto;html=1;endArrow=none;endFill=0;dashed=1;dashPattern=12 12;" edge="1" parent="1" source="WO5NyVBegauPzBwBtbuj-4" target="WO5NyVBegauPzBwBtbuj-8">
          <mxGeometry relative="1" as="geometry" />
        </mxCell>
        <mxCell id="WO5NyVBegauPzBwBtbuj-4" value="" style="html=1;verticalLabelPosition=bottom;align=center;labelBackgroundColor=#ffffff;verticalAlign=top;strokeWidth=2;strokeColor=#0080F0;shadow=0;dashed=0;shape=mxgraph.ios7.icons.data;" vertex="1" parent="1">
          <mxGeometry x="110" y="470" width="50" height="60" as="geometry" />
        </mxCell>
        <mxCell id="WO5NyVBegauPzBwBtbuj-5" value="" style="html=1;verticalLabelPosition=bottom;align=center;labelBackgroundColor=#ffffff;verticalAlign=top;strokeWidth=2;strokeColor=#0080F0;shadow=0;dashed=0;shape=mxgraph.ios7.icons.cloud;" vertex="1" parent="1">
          <mxGeometry x="280" y="60" width="60" height="40" as="geometry" />
        </mxCell>
        <mxCell id="WO5NyVBegauPzBwBtbuj-6" value="" style="html=1;verticalLabelPosition=bottom;align=center;labelBackgroundColor=#ffffff;verticalAlign=top;strokeWidth=2;strokeColor=#0080F0;shadow=0;dashed=0;shape=mxgraph.ios7.icons.cloud;" vertex="1" parent="1">
          <mxGeometry x="280" y="200" width="60" height="40" as="geometry" />
        </mxCell>
        <mxCell id="WO5NyVBegauPzBwBtbuj-7" value="" style="html=1;verticalLabelPosition=bottom;align=center;labelBackgroundColor=#ffffff;verticalAlign=top;strokeWidth=2;strokeColor=#0080F0;shadow=0;dashed=0;shape=mxgraph.ios7.icons.cloud;" vertex="1" parent="1">
          <mxGeometry x="280" y="340" width="60" height="40" as="geometry" />
        </mxCell>
        <mxCell id="WO5NyVBegauPzBwBtbuj-8" value="" style="html=1;verticalLabelPosition=bottom;align=center;labelBackgroundColor=#ffffff;verticalAlign=top;strokeWidth=2;strokeColor=#0080F0;shadow=0;dashed=0;shape=mxgraph.ios7.icons.cloud;" vertex="1" parent="1">
          <mxGeometry x="280" y="480" width="60" height="40" as="geometry" />
        </mxCell>
        <mxCell id="WO5NyVBegauPzBwBtbuj-9" style="edgeStyle=orthogonalEdgeStyle;rounded=0;orthogonalLoop=1;jettySize=auto;html=1;entryX=0.106;entryY=0.5;entryDx=0;entryDy=0;entryPerimeter=0;endArrow=none;endFill=0;dashed=1;dashPattern=12 12;" edge="1" parent="1" source="WO5NyVBegauPzBwBtbuj-1" target="WO5NyVBegauPzBwBtbuj-5">
          <mxGeometry relative="1" as="geometry" />
        </mxCell>
        <mxCell id="WO5NyVBegauPzBwBtbuj-10" style="edgeStyle=orthogonalEdgeStyle;rounded=0;orthogonalLoop=1;jettySize=auto;html=1;entryX=0.106;entryY=0.5;entryDx=0;entryDy=0;entryPerimeter=0;endArrow=none;endFill=0;dashed=1;dashPattern=12 12;" edge="1" parent="1" source="WO5NyVBegauPzBwBtbuj-2" target="WO5NyVBegauPzBwBtbuj-6">
          <mxGeometry relative="1" as="geometry" />
        </mxCell>
        <mxCell id="WO5NyVBegauPzBwBtbuj-11" style="edgeStyle=orthogonalEdgeStyle;rounded=0;orthogonalLoop=1;jettySize=auto;html=1;endArrow=none;endFill=0;dashed=1;dashPattern=12 12;" edge="1" parent="1" source="WO5NyVBegauPzBwBtbuj-3">
          <mxGeometry relative="1" as="geometry">
            <mxPoint x="280" y="360" as="targetPoint" />
          </mxGeometry>
        </mxCell>
        <mxCell id="WO5NyVBegauPzBwBtbuj-19" style="edgeStyle=orthogonalEdgeStyle;rounded=0;orthogonalLoop=1;jettySize=auto;html=1;entryX=0;entryY=0.5;entryDx=0;entryDy=0;endArrow=none;endFill=0;dashed=1;dashPattern=12 12;" edge="1" parent="1" source="WO5NyVBegauPzBwBtbuj-13" target="WO5NyVBegauPzBwBtbuj-18">
          <mxGeometry relative="1" as="geometry" />
        </mxCell>
        <mxCell id="WO5NyVBegauPzBwBtbuj-20" value="&lt;font style=&quot;font-size: 19px;&quot;&gt;REST&lt;/font&gt;" style="edgeLabel;html=1;align=center;verticalAlign=middle;resizable=0;points=[];" vertex="1" connectable="0" parent="WO5NyVBegauPzBwBtbuj-19">
          <mxGeometry x="0.433" y="2" relative="1" as="geometry">
            <mxPoint as="offset" />
          </mxGeometry>
        </mxCell>
        <mxCell id="WO5NyVBegauPzBwBtbuj-13" value="" style="shape=image;verticalLabelPosition=bottom;labelBackgroundColor=default;verticalAlign=top;aspect=fixed;imageAspect=0;image=data:image/png,iVBORw0KGgoAAAANSUhEUgAAAD8AAABHCAYAAACwLp9zAAAAAXNSR0IArs4c6QAAAARnQU1BAACxjwv8YQUAAAAJcEhZcwAADsMAAA7DAcdvqGQAAAqvSURBVHhe7VsJdJTVFf6yzJp9hYRACLJFBCqgYgU3ED2glqJ4WrFWUbRw0Pa0tbSKhy4HbG3FVo4WLXKUxbZaQKhVQMFArRAWZVUQRBBCQvZkJslkpfd780/IZCHz/zOTiSd854y/eTP883/v3Xfv9+69E+asqjmPHopw7dojcYl8T8Ul8j0Vl8j3VPRo8l0qcs7LN7nqm1BZ3aSuni+2mcIRHxUOi1y7EkEl73Q1Yv9JFw587cLxgjqcLq5HqbMRdQ3n0SQzwckgIsLDYI4MUxOQkWRCdroV2X0tuKKvFYnREe4PBQEBJ+90NSHnsBOb9zuRe7waFbLK1bVc6fOok1dDU8dfFyELb44Mh80cJq9wRfxb/a24dWQMxmfbkRQTqX0yMAgY+fzyBqzIKcOa3ArklTbAVdekVtifm4eFAaaIMFhlIvqJRUy7Jhb3jo9HRqJJ+4R/8Jt8YWUDVm4rx9+2lKKgrAGNsrIBNSUNMg8Il+3RVyZh5s0J+OEN8X5bgiHyHsdF0352fREOyp6+iDUHBcPEJzz13RRMHBEDu8WYo9RNvqHxPE4W1mHp+6X4+//K1Z4OFUziJO8XC3jijhSkJ5jEMrQ3fIQu8nRau45V4/n/FGPrIaeYuPZGiDFqgA3PzuitrowavsJn8vTim/c7sPidYuyT8NXdkJ4QiT/dn4abr4hGtNU3E/CJfJUQf3t3BX7/dhG+KqzXRrsfkiQ0LpieirvHxiHW3rk+6HSK6iVcrf8GECcooJ6R53xrZ4XSFp2hU/I5n1XJDYu7PXGCJlwgemPJeyV45xMHasVHXQwXJf/ZGRcWrikU4nXaSPcHwzAX6qVNJfjoSFWzhG4PHZIvExP67VuF2HOiRhsJPrJSTZh/VyqeE8c1Y1w8Ymy+Oa7WoNA6JNrj9W1lOFZQq422RYd3f/mDUmwSEdNVEPGG39zTC3NvS8KsCYmYNzUFcyYlIdbgBDAs5xyuwtrcShWp2kO7d94lB5LXRKfXi6DpKiTFRGCSHGAYpihWslLNeEhk7GyZAKMWQOtdv7sSHx+t0ka80eau9O4vvFuCfNHpXYnKmiaUVzdqf0kMFkvoLartoQkJ+NEtiYYmgEt3JK8W/97rwJmStg67zR2p13d8Ua32TVeCnvlXqwvkesFEuRXS4k1CPgmPyFbwVby0BK130z6nsubWzs/rblz15R+WokTMJRTYsMeBR1/J85oAWkBqfCQem5yEmTclIMrABOSX12PLQSfOlHqvvpfC44rzy0+cMx7axmdHKY8da+AhCZLtl2xqV6GVVzVi4dpCrJAjdJUPIqYlLutlxl8eTMeNw6K0kRbkaeVP/+Mclm8thaMD79gZ+NBbF2Sht5hqsMCFeWz5WWwT8aUXjCaPTLzgP5qX55yYBtNORokTV2bZZF8GL+dG9E8xI00OMUx56QXTa3ktTL/5FntFzBRV+Ofhj+XXKnkZTJwsqlORqMnAGjGRyufzOD5l9vyDe+mvm0v8Tk48cGMC7hobC0uksT3PBMXwfhZYW6Wx+bx5Eq6WbCzBG/8tR5nsfyNYLOrxvuvjVfZHkecJaM6yPKzbVRmQBEV8VARiDDi8yIgwTBkdg1/cmeKVsiZxpr1fEdW5ans5ih3GrYuL8/TdqegVF+k2+7Nl9SiqbAxYZoZe+bSskt7X8H5WzJaY3hHx1bLi/hAnuDU9x12NfIOYe2hiuwc0Q4bIzJQLkYLEqcw8xIsq/fcnPKHW1LUgXyKzyWxNKBEpcm6AnOpaIl8881LxQ6sCRJyghTtd7mqRIk8nV1PHeQ4daIpUeASfpEBCL50biRcHiDhBuUtn2SjsFfka+eK6LjzBtQeWsX63phDzVuXjuQ1F+PmKAuXcShyB346OmkYVKhV5l2h65uNDDe7H13LK8cJ7JXj3U4fhcNYZPBpBkRc5HXBQo2dnWPDq7AxsmJeJR+VYGudDRpWa3VPJDTYUeSb6GWMDiUG9zVg5N0MVF2+4PAo/mZKMe66N094NLSikyFaRt5vDVTU0UOgrB5x1T2RiaB+rui/r730STfK3RftEaGE3C3lhrsjHiiJjTdxf0NQHp5mx8cn+Eq/N2qgbpc4GnBJdHmrwQMTqLhdEkU+NFTlq8+80xptSob3x475tiDOMMUO0JrdSGwkdKGvtFrfZK21PL/u4nJE/PKz/jEzQX1zZ34rnH0jDiEybSj95wHQY09+LJIydEpmqF8wzOGrcTjAQqbXrhtqxdFYflSBV5NlFMWfZWdVVoVff09SvHmjHou/3wpjLbMqcWoIhtFCOykZTY8zt7WY2eVsZDp/uOAfvK9jYMH9aKlLFApozOYvWFeKlTaXqUKIHzKsvmZmOO8bE6ioP6wEbIfhsrBf6UoPrCFwXVnLvG+8+0qo9T4yQ/coqp14wochZDBZxgmd77lUj2duWoKMbkm5RzU5E891GZdmQniimoJMDLeUT2dPMuwcLPNQcPu1CpZ8nz1FZVlXH93BsNnuecp7+ZwFe3VKmO483OM0iIiZJ1cVb98cwHX7kbC32nzLW0MD2NRZMN+5z4GSR8UoxT42s3T884UICs5k8kXusGrNeNpa6HiiK7qe3J+N718V7bQE6PDYsUa/vlPvrBf99RVUTqrUzuFFki8Difr8+O6p55SOefGr+r93/CyRLvN/9ZQ2+FPJ6vT5DEb1xnD1chTvPF7B9jGktqykMn37lwlGxAraf+vpikTEQNcNp18ThO1fFepW9vGyUjuXecfE+tXS0B2ZWF64twsrtZdqIG3QwnPFJI6O1ka4FrZLFihRZ3Jbw3qACHkImjYwyfNBhXnzBm4V4PaftBPhyqgs0qDzZpDR2kL2NBmlDng/5s9tTZPXbvOUz6J0XvHnOawK4ldgp0dUYkWnFlFExsuptuzW9HJ4H9PwvbirBL1cXaCPGwP11y4hoJMdEYOcXNTgkXttIscEoKMAen5wkjjilXR3SLnmCXnb64q/xwUFnm9LuNwEMbXdeFYM/zEhT5a320KFtc8+/+HA6hkgMN7b7Qwd2dowaYFV1/Y6IExfd2Oxn/fOD6ejXIpfe3UGfNrCXBXNuTcK3h9i10fbRqVcbO8iGP/4gzX0E1Ma6K0i8X7IZsyYmYKrE9M7QKXmaP0MFpeHQDNkC3XQG+FhMosy9LVF1c/kSqjt0eK3BEs/7B5yq8fiA6PSuyK7qAUMa+3ZYgfVVo/hMnuAEfHy0Gsu2lGL75/z9THDy6nrAEHaTqDc6twkSVlvpmItCF3mCOpv6fM3OCtXgd6KwLmShMDPZhKlXu393MyzDqo36Dt3kPWD9bNvnVfjXjgrVHxPM83xrULyMGxqF6dfGYcLwaCRERxhyxobJE9z3XPkdshXW76nERzIZbPsMFqIs4Rg9wKZWe9xQuxxYLH5lkPwi7wF9AZsLdh+vweYDDtX011G/q16QGpsVGLMni0YfM8CudIdqK3F/xDACQt4DrjqLE+z0yBUtz+6nvSdc6udnesBwyl7c0Vk2Zd5jB9vVT8o45sm/BQIBJe8BHSAzriw6sumBVsEc3Ilz9erIy2YIWgYni5UiJkEToiLRJzFSianLRU/wynGW0vijQj1e3FcEhXxrsNbAggNPdJ7f0PJLeeUqkxev4fIf6nJVSgoCWW8A/wcaChzp/TaKRwAAAABJRU5ErkJggg==;" vertex="1" parent="1">
          <mxGeometry x="490" y="240" width="63" height="71" as="geometry" />
        </mxCell>
        <mxCell id="WO5NyVBegauPzBwBtbuj-14" style="edgeStyle=orthogonalEdgeStyle;rounded=0;orthogonalLoop=1;jettySize=auto;html=1;entryX=0.994;entryY=0.5;entryDx=0;entryDy=0;entryPerimeter=0;endArrow=none;endFill=0;dashed=1;dashPattern=12 12;" edge="1" parent="1" source="WO5NyVBegauPzBwBtbuj-13" target="WO5NyVBegauPzBwBtbuj-5">
          <mxGeometry relative="1" as="geometry" />
        </mxCell>
        <mxCell id="WO5NyVBegauPzBwBtbuj-23" value="REST" style="edgeLabel;html=1;align=center;verticalAlign=middle;resizable=0;points=[];" vertex="1" connectable="0" parent="WO5NyVBegauPzBwBtbuj-14">
          <mxGeometry x="0.592" y="1" relative="1" as="geometry">
            <mxPoint x="-9" y="-20" as="offset" />
          </mxGeometry>
        </mxCell>
        <mxCell id="WO5NyVBegauPzBwBtbuj-15" style="edgeStyle=orthogonalEdgeStyle;rounded=0;orthogonalLoop=1;jettySize=auto;html=1;entryX=1;entryY=0.75;entryDx=0;entryDy=0;entryPerimeter=0;endArrow=none;endFill=0;dashed=1;dashPattern=8 8;" edge="1" parent="1" source="WO5NyVBegauPzBwBtbuj-13" target="WO5NyVBegauPzBwBtbuj-6">
          <mxGeometry relative="1" as="geometry" />
        </mxCell>
        <mxCell id="WO5NyVBegauPzBwBtbuj-24" value="REST" style="edgeLabel;html=1;align=center;verticalAlign=middle;resizable=0;points=[];" vertex="1" connectable="0" parent="WO5NyVBegauPzBwBtbuj-15">
          <mxGeometry x="0.6748" y="1" relative="1" as="geometry">
            <mxPoint as="offset" />
          </mxGeometry>
        </mxCell>
        <mxCell id="WO5NyVBegauPzBwBtbuj-16" style="edgeStyle=orthogonalEdgeStyle;rounded=0;orthogonalLoop=1;jettySize=auto;html=1;entryX=0.994;entryY=0.833;entryDx=0;entryDy=0;entryPerimeter=0;endArrow=none;endFill=0;dashed=1;dashPattern=12 12;" edge="1" parent="1" source="WO5NyVBegauPzBwBtbuj-13" target="WO5NyVBegauPzBwBtbuj-7">
          <mxGeometry relative="1" as="geometry" />
        </mxCell>
        <mxCell id="WO5NyVBegauPzBwBtbuj-25" value="REST" style="edgeLabel;html=1;align=center;verticalAlign=middle;resizable=0;points=[];" vertex="1" connectable="0" parent="WO5NyVBegauPzBwBtbuj-16">
          <mxGeometry x="0.772" y="-1" relative="1" as="geometry">
            <mxPoint as="offset" />
          </mxGeometry>
        </mxCell>
        <mxCell id="WO5NyVBegauPzBwBtbuj-17" style="edgeStyle=orthogonalEdgeStyle;rounded=0;orthogonalLoop=1;jettySize=auto;html=1;entryX=0.994;entryY=0.792;entryDx=0;entryDy=0;entryPerimeter=0;endArrow=none;endFill=0;dashed=1;dashPattern=12 12;" edge="1" parent="1" source="WO5NyVBegauPzBwBtbuj-13" target="WO5NyVBegauPzBwBtbuj-8">
          <mxGeometry relative="1" as="geometry" />
        </mxCell>
        <mxCell id="WO5NyVBegauPzBwBtbuj-26" value="REST" style="edgeLabel;html=1;align=center;verticalAlign=middle;resizable=0;points=[];" vertex="1" connectable="0" parent="WO5NyVBegauPzBwBtbuj-17">
          <mxGeometry x="0.8695" y="-2" relative="1" as="geometry">
            <mxPoint as="offset" />
          </mxGeometry>
        </mxCell>
        <mxCell id="WO5NyVBegauPzBwBtbuj-18" value="" style="shape=image;verticalLabelPosition=bottom;labelBackgroundColor=default;verticalAlign=top;aspect=fixed;imageAspect=0;image=data:image/png,iVBORw0KGgoAAAANSUhEUgAAAD0AAAA+CAYAAACY9hNHAAAAAXNSR0IArs4c6QAAAARnQU1BAACxjwv8YQUAAAAJcEhZcwAADsMAAA7DAcdvqGQAAAPFSURBVGhD7ZtLTxNRFMf/M+30YSnQ8gbrEyOKMUZdGF/RxMToxoUb40ZXfgR37v0GrvwALkzUjQnGrQ/Q+E5ERS1qEZSiBfqch+fc6UBtYUvD3PsjZWbuTIf5zT33zCG5oy0sFhxIhl5dSsWKPW1aDsqmA3sdx4CmAdGQBp1X6liSduj3YsnGl+kyMnMVFCvrXzoW1jCQNLC9J4ywsSwvpFn4V87Eo/FFZLImcgVrXQt76DR42zcEkOowcHgohkQsINqF9Nyihfsvcvj2uwLLFu2+Iqhr2NodwtkDcep9HTr38pMPeUz6VJgxKWy//ipj7FNebOs8jt99K8L2qbBHhZLzh0wJfymqtdH3c86dsVx11zIRynybO0PoTwSxULQxPlXCfN5G7VCnqEGKjtnSbYib9mWGkmC20pAPuluDGOwLidBKU0TxH28GLREdp/fFoT18Oes8fLNQbXbpiAdwfHcMQwMReDkvu2DiHt2cqT+myPTM8V0xHKWPB0fNY0qGzyYKS+LDqQhO7mlBa3S5JHifKeLuaG7Nh1M0pOMYXW9DcWIENQz2hrCzL7wkzCRbgji8Mya+yPRRBNQKM9yTw6koNlHvM5wtD2yL/ifM7OgN4+C2DdWttcOp/jRIx0iqp82gdF+r7JLqNGAE3PbtPa5YPcmWALragmK9LxkUIVUPFwx8rmbRcEUclV741mNa7n6xvkpo2vRluxrbDh2z0rm4qZl1QIN0nsalV5HV4iWqCpWnzGeq3PjYWljkd84ShQ4zQ0uuAeoFy3THPv5sTjJjGqQ5tbPc28kCJS8LhbItKrSJ6RKeT+RRqriiM39NPP2YxzQt83QMJzHO3K/TBUzNudLZeQuvaDtNz0h+AvC5Zumcb9JFjP9onvSK2ZuJ01jcSOOujco47vVJuvA/db0WoFvGSaubxrBFO/hGZEiY/2Hx4Bq4h/b3Uw0coiTJ55j4SRFTc8xawY9hzt6rSvsRT7oxtUqAlNLazQdTzo2RbHXT38SpSLp8IgHt+u3vzrVb09Vmf8MV4tVzXdD5+cvPXlk+7KsSmSwoaVlQ0rKgpGVBScuCkpYFJS0LSloWlLQsKGlZUNKyoKRlQUnLgpKWBSUtC0paFpS0FGgkbbhzV6WA3+mIGLTkdxtkgWcwb0wa0PdvjYppjH6HZ3L3Jwzs3RyB3hkP4uLRNjHP089EQjrOH2pFbzvPZSfZSycSOMPvNjTOa/cF7MV+F460u9v8XhbP4H2dLuLGyCzujs2Lacx+gV+xuHisHVdOJbFrIEwtwD+YkUHqfdYZpgAAAABJRU5ErkJggg==;" vertex="1" parent="1">
          <mxGeometry x="710" y="254.5" width="61" height="62" as="geometry" />
        </mxCell>
      </root>
    </mxGraphModel>
  </diagram>
</mxfile>
